<svg xmlns="http://www.w3.org/2000/svg" viewBox="0 0 32 32" fill="none">
  <rect x="6" y="6" width="20" height="20" rx="3" fill="#00c853"/>
  <rect x="10" y="10" width="12" height="12" rx="2" fill="#050810" opacity="0.6"/>
  <circle cx="16" cy="16" r="2" fill="#00e5cc"/>
  <!-- Pins -->
  <rect x="10" y="2" width="2" height="5" rx="1" fill="#00c853" opacity="0.7"/>
  <rect x="15" y="2" width="2" height="5" rx="1" fill="#00c853" opacity="0.7"/>
  <rect x="20" y="2" width="2" height="5" rx="1" fill="#00c853" opacity="0.7"/>
  <rect x="10" y="25" width="2" height="5" rx="1" fill="#00c853" opacity="0.7"/>
  <rect x="15" y="25" width="2" height="5" rx="1" fill="#00c853" opacity="0.7"/>
  <rect x="20" y="25" width="2" height="5" rx="1" fill="#00c853" opacity="0.7"/>
  <rect x="2" y="10" width="5" height="2" rx="1" fill="#00c853" opacity="0.7"/>
  <rect x="2" y="15" width="5" height="2" rx="1" fill="#00c853" opacity="0.7"/>
  <rect x="2" y="20" width="5" height="2" rx="1" fill="#00c853" opacity="0.7"/>
  <rect x="25" y="10" width="5" height="2" rx="1" fill="#00c853" opacity="0.7"/>
  <rect x="25" y="15" width="5" height="2" rx="1" fill="#00c853" opacity="0.7"/>
  <rect x="25" y="20" width="5" height="2" rx="1" fill="#00c853" opacity="0.7"/>
</svg>
